<?xml version="1.0" standalone="no"?>
<!DOCTYPE svg PUBLIC "-//W3C//DTD SVG 20010904//EN"
 "http://www.w3.org/TR/2001/REC-SVG-20010904/DTD/svg10.dtd">
<svg version="1.0" xmlns="http://www.w3.org/2000/svg"
 width="1752.000000pt" height="500.000000pt" viewBox="0 0 1752.000000 500.000000"
 preserveAspectRatio="xMidYMid meet">

<g transform="translate(0.000000,500.000000) scale(0.100000,-0.100000)"
fill="#000000" stroke="none">
<path d="M6775 3658 c-3 -7 -6 -233 -7 -503 l-3 -490 -510 0 -510 0 -5 495 -5
495 -1320 3 c-1450 2 -1422 3 -1566 -57 -153 -65 -301 -187 -378 -315 -86
-143 -116 -273 -108 -466 8 -182 31 -272 87 -345 150 -195 435 -346 760 -404
281 -51 435 -94 528 -148 148 -87 158 -253 19 -325 -107 -54 -46 -52 -1335
-55 l-1192 -4 2 -262 3 -262 1285 0 c1277 0 1286 0 1380 21 169 39 261 83 406
199 131 105 222 232 266 375 30 100 31 268 0 380 -43 161 -59 189 -147 275
-173 169 -405 270 -805 351 -250 51 -371 95 -458 169 -55 47 -75 87 -76 150
-1 74 29 117 107 154 103 50 150 52 1007 49 l785 -3 5 -1060 5 -1060 365 0
365 0 5 515 5 515 515 0 515 0 5 -515 5 -515 375 0 375 0 0 1025 0 1025 470 0
470 0 3 -1023 2 -1022 373 2 372 3 5 1020 5 1020 835 5 835 5 0 295 0 295
-2058 3 c-1641 2 -2059 0 -2062 -10z"/>
<path d="M11922 3608 c-15 -35 -248 -559 -517 -1165 -269 -607 -493 -1103
-497 -1103 -4 0 -9 339 -10 753 l-3 752 -365 0 -365 0 0 -915 0 -915 676 -3
c576 -2 678 0 688 12 7 8 56 124 110 258 l97 243 570 0 569 0 95 -247 c53
-136 100 -252 106 -258 7 -7 242 -9 700 -8 l689 3 5 331 5 331 139 147 139
147 22 -23 c13 -13 174 -221 360 -463 186 -242 347 -448 357 -457 19 -17 55
-18 444 -18 367 0 424 2 424 15 0 8 -240 326 -533 707 -293 381 -543 707 -556
724 l-23 32 518 577 c286 317 520 581 522 586 2 5 -163 9 -397 9 l-400 0 -501
-550 c-276 -302 -506 -550 -511 -550 -5 0 -10 224 -11 548 l-3 547 -368 0
-367 0 0 -1162 c0 -640 -3 -1163 -8 -1163 -4 0 -223 489 -487 1088 -263 598
-496 1124 -516 1170 l-38 82 -365 0 -366 0 -28 -62z m562 -1104 c92 -228 164
-419 161 -425 -8 -11 -662 -12 -669 -1 -6 11 325 842 335 842 4 0 82 -187 173
-416z"/>
<path d="M1245 3648 c-3 -7 -4 -431 -3 -943 l3 -930 365 0 365 0 0 940 0 940
-363 3 c-285 2 -364 0 -367 -10z"/>
</g>
</svg>
